<svg version="1.1" id="Layer_1" xmlns="http://www.w3.org/2000/svg" xmlns:xlink="http://www.w3.org/1999/xlink" x="0px" y="0px"
	 width="100%" viewBox="0 0 563 494" enable-background="new 0 0 563 494" xml:space="preserve">
<path fill="#E5E6E6" opacity="1.000000" stroke="none" 
	d="
M1.000000,170.000000 
	C1.000000,113.346611 1.000000,57.193230 1.000000,1.019921 
	C188.609009,1.019921 376.218018,1.019921 563.913513,1.019921 
	C563.913513,165.570038 563.913513,330.140137 563.913513,494.855103 
	C376.333405,494.855103 188.666718,494.855103 1.000000,494.855103 
	C1.000000,386.782013 1.000000,278.640991 1.000000,170.000000 
M473.029175,43.311275 
	C472.350464,42.882092 471.671783,42.452908 470.690399,41.563572 
	C470.199249,41.347401 469.708130,41.131226 468.834198,40.372585 
	C467.535095,39.673367 466.236023,38.974144 464.591461,37.703293 
	C463.537445,37.420158 462.483459,37.137024 461.092224,36.256794 
	C459.730164,35.547398 458.368073,34.837997 456.387665,33.926533 
	C455.741882,33.902382 455.096069,33.878227 454.073761,33.227947 
	C451.392059,32.344223 448.710327,31.460505 445.183868,30.322329 
	C443.420471,30.281460 441.657074,30.240589 439.314362,29.625109 
	C437.506378,29.454819 435.699371,29.150438 433.890228,29.137114 
	C425.402466,29.074598 416.914093,29.082708 408.425934,29.082510 
	C320.880859,29.080469 233.335785,29.068357 145.790771,29.130106 
	C142.234070,29.132614 138.677872,29.840286 134.239349,30.094324 
	C132.483688,30.268488 130.728012,30.442652 128.277039,30.430834 
	C125.705650,31.573439 123.134254,32.716042 119.855637,33.784790 
	C118.568428,34.295193 117.281219,34.805595 115.306534,35.274609 
	C113.418091,36.474697 111.529648,37.674786 109.305946,38.852474 
	C109.305946,38.852474 109.000717,38.992973 108.300591,39.085091 
	C105.756577,41.017620 103.212555,42.950153 100.023140,45.021294 
	C96.992363,48.283417 93.961586,51.545540 90.343590,55.028744 
	C89.921341,55.693134 89.499100,56.357529 88.561058,57.323822 
	C88.322899,58.055794 88.084747,58.787766 87.247368,59.823788 
	C86.820389,60.549816 86.393417,61.275848 85.575340,62.501247 
	C85.280479,63.489544 84.985619,64.477837 84.062202,65.751976 
	C83.282997,67.131973 82.503799,68.511971 81.332947,70.321365 
	C81.230362,70.884773 81.127777,71.448174 80.479599,72.468849 
	C79.585533,76.345963 78.691460,80.223068 77.702950,84.585739 
	C77.666069,84.922173 77.715164,85.245552 77.179840,86.028702 
	C76.841087,88.099159 76.210815,90.169075 76.206978,92.240158 
	C76.141464,127.637474 76.152054,163.034927 76.153809,198.432358 
	C76.153870,199.759201 76.154167,201.098099 76.352013,202.401398 
	C76.386215,202.626724 77.415237,202.701050 78.730644,202.913986 
	C83.821991,200.571777 88.913338,198.229568 94.633621,195.849304 
	C95.225822,195.278702 95.818016,194.708115 97.096840,194.126389 
	C99.065720,193.025650 101.034599,191.924896 103.589874,190.823944 
	C104.016418,190.461502 104.442955,190.099060 105.563576,189.749283 
	C107.044807,189.102432 108.526031,188.455582 110.623795,187.788528 
	C111.204491,187.234985 111.785187,186.681458 112.691551,186.175766 
	C112.691551,186.175766 112.998802,186.057663 113.601402,186.008728 
	C114.055588,185.648712 114.509773,185.288696 115.696068,184.897903 
	C118.466927,183.541199 121.237793,182.184509 124.703537,180.793640 
	C126.229073,179.895935 127.754608,178.998215 129.651947,178.119293 
	C129.651947,178.119293 130.000198,177.987732 130.601456,177.954163 
	C131.041855,177.584717 131.482254,177.215256 132.639725,176.824493 
	C134.762360,175.714691 136.885010,174.604874 139.602432,173.647141 
	C140.400665,173.096237 141.198898,172.545334 142.613113,171.968811 
	C143.450287,171.426361 144.287476,170.883911 145.888626,170.239731 
	C149.363678,168.529938 152.838730,166.820129 157.004471,165.113251 
	C158.670822,164.366211 160.337189,163.619171 162.676392,162.818558 
	C163.922211,161.928040 165.168045,161.037537 167.119400,160.189056 
	C168.417313,159.663605 169.715240,159.138153 171.610291,158.678116 
	C172.172165,158.154770 172.734039,157.631424 174.009033,157.106705 
	C176.342834,155.971344 178.676620,154.835999 181.628571,153.742599 
	C182.220596,153.207886 182.812622,152.673157 183.954086,152.173294 
	C184.304626,152.071381 184.655182,151.969452 185.624802,151.814133 
	C186.223450,151.256332 186.822113,150.698547 187.973068,150.156387 
	C188.318665,150.034409 188.664261,149.912415 189.687302,149.787842 
	C190.947510,148.909271 192.207703,148.030701 193.988144,147.217377 
	C194.325882,147.134903 194.663620,147.052429 195.644699,146.901413 
	C196.261444,146.318542 196.878189,145.735672 198.173767,145.182831 
	C199.451187,144.734711 200.728622,144.286591 202.632797,143.824341 
	C203.221817,143.261414 203.810822,142.698471 205.055481,142.097946 
	C206.042679,141.637344 207.029861,141.176727 208.707275,141.182587 
	C209.139297,143.212677 209.933868,145.240387 209.947128,147.273209 
	C210.076889,167.178619 210.076401,187.084869 209.592636,207.432587 
	C207.391861,208.705597 205.191086,209.978622 202.379288,211.251511 
	C201.788452,211.789169 201.197632,212.326828 200.059128,212.809753 
	C199.705429,212.900116 199.351715,212.990494 198.409790,213.091507 
	C197.960861,213.437134 197.511932,213.782761 196.368225,214.178497 
	C194.243546,215.259430 192.118851,216.340363 189.312393,217.334045 
	C184.064377,220.174667 178.816360,223.015305 173.030350,225.801941 
	C172.685379,225.898758 172.340424,225.995575 171.357254,226.151077 
	C170.731476,226.714828 170.105698,227.278580 168.856384,227.809525 
	C167.904373,228.204849 166.952362,228.600159 165.270889,229.069046 
	C162.373978,230.664536 159.477081,232.260040 156.037949,233.810104 
	C155.690338,233.906967 155.342743,234.003830 154.297516,234.158646 
	C152.765671,235.069870 151.233810,235.981079 149.341110,236.861664 
	C149.341110,236.861664 149.000366,236.984299 148.268494,237.053268 
	C145.383102,238.658051 142.497726,240.262848 138.874847,241.822861 
	C138.544891,241.866516 138.176041,241.828857 137.890533,241.965439 
	C118.097443,251.434509 98.282822,260.860138 78.588837,270.531403 
	C77.306046,271.161316 76.345642,273.660461 76.275932,275.333466 
	C76.005623,281.820526 76.476387,288.346527 76.044456,294.816162 
	C75.725853,299.588440 77.609436,301.915527 81.802902,303.859894 
	C101.712700,313.091431 121.507004,322.573792 141.296906,332.061829 
	C183.877426,352.476624 226.422699,372.964905 269.003479,393.379150 
	C274.148438,395.845764 279.423401,398.041199 285.027618,400.535675 
	C285.405975,398.858734 285.730774,398.089447 285.731415,397.319916 
	C285.761688,361.163788 285.808105,325.007385 285.624023,288.852173 
	C285.615753,287.227631 283.847717,284.926056 282.287415,284.110504 
	C274.190826,279.878448 265.931122,275.950653 257.657928,272.066620 
	C250.915649,268.901276 244.074310,265.946960 236.950241,262.297333 
	C235.302521,261.576233 233.654785,260.855164 231.505264,259.924133 
	C231.146179,259.901703 230.787109,259.879272 230.107056,259.296692 
	C229.406677,258.908722 228.706314,258.520752 227.471710,257.946869 
	C227.097305,257.923065 226.722885,257.899261 226.058365,257.327393 
	C225.377243,257.003479 224.696136,256.679596 223.476135,255.932755 
	C222.419739,255.585281 221.363342,255.237823 219.956451,254.284607 
	C216.971649,252.869339 213.986847,251.454071 210.645126,249.897812 
	C210.645126,249.897812 210.261444,249.905518 209.944885,249.299164 
	C208.298782,248.574829 206.652679,247.850510 204.484344,246.927094 
	C204.114716,246.907959 203.745087,246.888824 203.058151,246.320358 
	C202.374374,245.931778 201.690598,245.543198 200.412399,244.774994 
	C197.923859,243.544830 195.435333,242.314682 193.032837,240.553314 
	C193.037750,240.374023 193.042679,240.194717 193.666260,239.731033 
	C195.448410,238.700119 197.230576,237.669205 199.611145,236.689026 
	C200.178040,236.163574 200.744949,235.638138 201.893646,235.125427 
	C202.265045,235.018875 202.636459,234.912308 203.716232,234.781662 
	C206.565125,233.219116 209.414001,231.656586 212.644409,230.106186 
	C212.644409,230.106186 213.000931,229.969788 213.727722,229.896667 
	C216.611176,228.307571 219.494629,226.718460 223.078033,225.138031 
	C225.384781,224.065506 227.691513,222.992981 230.760590,221.735229 
	C231.142960,220.043640 231.855865,218.352692 231.859024,216.660385 
	C231.925262,181.275620 231.914871,145.890701 231.897781,110.505829 
	C231.897171,109.245483 231.673798,107.985245 231.460114,105.732254 
	C229.416824,107.045120 228.005676,107.951813 226.049622,108.806847 
	C225.698517,108.899117 225.347427,108.991386 224.313919,109.120628 
	C223.064865,110.031425 221.815796,110.942230 219.853073,111.809471 
	C218.566528,112.352722 217.279968,112.895981 215.314896,113.346588 
	C212.150223,115.089645 208.985550,116.832695 205.094818,118.668571 
	C202.729065,119.795662 200.363297,120.922752 197.295532,122.110664 
	C195.751205,123.034096 194.206863,123.957527 191.957962,124.875786 
	C189.636871,125.959595 187.315781,127.043404 184.357422,128.149658 
	C183.752808,128.716721 183.148178,129.283783 182.015259,129.794754 
	C181.675613,129.887894 181.335953,129.981033 180.296478,130.136169 
	C178.750793,131.050232 177.205124,131.964279 175.085678,132.868439 
	C174.721115,132.978882 174.356552,133.089340 173.374313,133.220810 
	C172.774139,133.766220 172.173981,134.311630 170.913452,134.838287 
	C169.939056,135.315414 168.964661,135.792542 167.303940,136.258728 
	C165.399109,137.457413 163.494278,138.656097 160.867508,139.858261 
	C156.576859,141.939560 152.286209,144.020844 147.271164,146.150558 
	C144.404510,147.726135 141.537857,149.301727 137.987991,150.859497 
	C136.987534,151.356171 135.987091,151.852859 134.372543,152.287704 
	C133.773544,152.810699 133.174530,153.333710 131.856918,153.839111 
	C129.241318,154.993256 126.625710,156.147400 123.318359,157.261139 
	C121.404419,158.457458 119.490479,159.653778 117.036598,160.800598 
	C116.689789,160.895355 116.342972,160.990097 115.313560,161.127487 
	C114.057449,162.035233 112.801346,162.942993 110.844490,163.803986 
	C109.558563,164.332962 108.272636,164.861938 106.392365,165.327637 
	C105.849754,165.856262 105.307144,166.384872 104.022903,166.926788 
	C102.668968,167.508408 101.315033,168.090027 99.293434,168.308182 
	C98.577911,168.050079 97.862396,167.791977 97.287788,166.663513 
	C97.286476,142.795868 97.285164,118.928215 97.681236,94.447830 
	C97.984795,91.967361 98.288361,89.486900 98.834694,86.281219 
	C98.891685,85.521698 98.948677,84.762184 99.440971,83.628387 
	C99.559639,83.087738 99.678307,82.547089 100.190598,81.395180 
	C101.178886,78.764114 102.167183,76.133049 103.719101,73.160927 
	C104.136467,72.441040 104.553833,71.721146 105.431839,70.520256 
	C109.623314,66.294899 113.814789,62.069546 118.623108,57.807114 
	C119.191109,57.243469 119.759109,56.679825 120.990143,56.058472 
	C121.988968,55.584473 122.987793,55.110470 124.706474,54.701275 
	C127.123047,53.685669 129.539627,52.670063 132.665955,51.699963 
	C133.117554,51.564682 133.569138,51.429401 134.810104,51.567669 
	C139.283966,51.330273 143.757736,50.887726 148.231705,50.885742 
	C239.291214,50.845379 330.350922,50.772907 421.409943,50.981888 
	C430.611847,51.003006 439.809723,52.784096 449.541443,54.156441 
	C450.384155,54.389202 451.226868,54.621964 452.378967,55.360889 
	C452.918762,55.551193 453.458557,55.741497 454.541748,56.159252 
	C455.054504,56.439201 455.567291,56.719147 456.337860,57.583527 
	C457.573700,58.340305 458.809509,59.097084 460.369537,60.440300 
	C472.411163,71.466423 477.671875,85.150909 477.185272,101.436676 
	C476.792572,114.580666 477.057251,127.745949 477.153870,140.900879 
	C477.166382,142.601593 477.378052,145.244583 478.418579,145.839157 
	C484.646667,149.398056 491.144592,152.484741 498.944366,156.434906 
	C498.944366,151.473495 498.990082,148.229950 498.936890,144.988007 
	C498.609375,125.030891 499.201813,104.999603 497.630829,85.139915 
	C496.276825,68.023430 487.368744,54.133694 473.029175,43.311275 
M84.688629,418.703461 
	C88.839935,423.885162 92.501045,429.573456 97.234528,434.153442 
	C111.417145,447.876099 129.069809,452.735077 148.358322,452.736664 
	C241.506424,452.744385 334.654724,452.823212 427.802277,452.597656 
	C436.025513,452.577759 444.714752,451.887512 452.380524,449.203552 
	C480.944214,439.202545 499.268616,414.771210 499.009521,383.619507 
	C498.729614,349.961884 498.954834,316.300140 498.936646,282.640198 
	C498.935730,280.914917 498.717285,279.189728 498.551117,276.742859 
	C453.995911,298.030762 410.236511,318.938416 366.029449,340.059998 
	C365.509827,338.038635 365.140381,337.269501 365.139343,336.499847 
	C365.113068,316.837738 365.000641,297.173553 365.321442,277.516571 
	C365.353943,275.527283 367.611237,272.710510 369.561157,271.750671 
	C388.034180,262.657196 406.672180,253.899307 425.247314,245.012680 
	C448.468842,233.903183 471.649170,222.706863 494.922058,211.706207 
	C497.925995,210.286301 499.136139,208.612595 499.018341,205.275970 
	C498.777344,198.452469 498.783936,191.609375 499.007355,184.784790 
	C499.121918,181.285889 497.896088,179.550232 494.638092,178.029160 
	C474.601562,168.674622 454.681305,159.069702 434.762360,149.465103 
	C416.671875,140.742142 398.647430,131.882339 380.566711,123.139000 
	C354.541748,110.554047 328.500732,98.002174 302.443604,85.483978 
	C298.699127,83.685074 294.826416,82.153168 290.599121,80.318008 
	C290.270874,82.327324 290.025269,83.130280 290.024994,83.933311 
	C290.012115,120.092720 289.970856,156.252426 290.177429,192.410690 
	C290.187561,194.177246 291.998749,196.611938 293.647369,197.561127 
	C298.245331,200.208374 303.212616,202.209442 308.010071,204.515579 
	C327.191589,213.736053 346.372742,222.957382 365.533997,232.219849 
	C370.780365,234.755936 375.956909,237.436417 382.290924,240.615494 
	C369.651337,246.814117 358.584595,252.473434 347.292297,257.639709 
	C343.846588,259.216125 343.160828,261.339478 343.166168,264.622589 
	C343.222900,299.615509 343.192444,334.608582 343.235962,369.601562 
	C343.238037,371.276398 343.707428,372.950653 344.053101,375.249542 
	C388.673279,353.966675 432.505127,333.059845 476.845917,311.910217 
	C476.968018,314.278625 477.094299,315.594604 477.095062,316.910675 
	C477.108521,339.572815 477.048615,362.235138 477.123352,384.897034 
	C477.205750,409.884003 455.856293,430.320526 431.774628,430.241760 
	C335.794800,429.927734 239.812988,429.975708 143.832703,430.213074 
	C118.253090,430.276337 98.025887,409.871124 97.976349,384.272949 
	C97.953133,372.275360 97.969643,360.277740 97.971176,348.280121 
	C97.972847,335.207275 97.979507,335.196838 86.399467,329.496613 
	C84.459984,328.541901 82.485741,327.639069 80.467117,326.871155 
	C79.322701,326.435852 78.055428,326.323486 76.157326,325.919739 
	C76.157326,328.389709 76.157349,330.185638 76.157318,331.981598 
	C76.157043,346.978607 76.488014,361.985046 76.061478,376.969910 
	C75.651077,391.388031 77.560265,405.164154 84.688629,418.703461 
z"/>
<path fill="#5EECD4" opacity="1.000000" stroke="none" 
	d="
M84.523331,418.373016 
	C77.560265,405.164154 75.651077,391.388031 76.061478,376.969910 
	C76.488014,361.985046 76.157043,346.978607 76.157318,331.981598 
	C76.157349,330.185638 76.157326,328.389709 76.157326,325.919739 
	C78.055428,326.323486 79.322701,326.435852 80.467117,326.871155 
	C82.485741,327.639069 84.459984,328.541901 86.399467,329.496613 
	C97.979507,335.196838 97.972847,335.207275 97.971176,348.280121 
	C97.969643,360.277740 97.953133,372.275360 97.976349,384.272949 
	C98.025887,409.871124 118.253090,430.276337 143.832703,430.213074 
	C239.812988,429.975708 335.794800,429.927734 431.774628,430.241760 
	C455.856293,430.320526 477.205750,409.884003 477.123352,384.897034 
	C477.048615,362.235138 477.108521,339.572815 477.095062,316.910675 
	C477.094299,315.594604 476.968018,314.278625 476.845917,311.910217 
	C432.505127,333.059845 388.673279,353.966675 344.053101,375.249542 
	C343.707428,372.950653 343.238037,371.276398 343.235962,369.601562 
	C343.192444,334.608582 343.222900,299.615509 343.166168,264.622589 
	C343.160828,261.339478 343.846588,259.216125 347.292297,257.639709 
	C358.584595,252.473434 369.651337,246.814117 382.290924,240.615494 
	C375.956909,237.436417 370.780365,234.755936 365.533997,232.219849 
	C346.372742,222.957382 327.191589,213.736053 308.010071,204.515579 
	C303.212616,202.209442 298.245331,200.208374 293.647369,197.561127 
	C291.998749,196.611938 290.187561,194.177246 290.177429,192.410690 
	C289.970856,156.252426 290.012115,120.092720 290.024994,83.933311 
	C290.025269,83.130280 290.270874,82.327324 290.599121,80.318008 
	C294.826416,82.153168 298.699127,83.685074 302.443604,85.483978 
	C328.500732,98.002174 354.541748,110.554047 380.566711,123.139000 
	C398.647430,131.882339 416.671875,140.742142 434.762360,149.465103 
	C454.681305,159.069702 474.601562,168.674622 494.638092,178.029160 
	C497.896088,179.550232 499.121918,181.285889 499.007355,184.784790 
	C498.783936,191.609375 498.777344,198.452469 499.018341,205.275970 
	C499.136139,208.612595 497.925995,210.286301 494.922058,211.706207 
	C471.649170,222.706863 448.468842,233.903183 425.247314,245.012680 
	C406.672180,253.899307 388.034180,262.657196 369.561157,271.750671 
	C367.611237,272.710510 365.353943,275.527283 365.321442,277.516571 
	C365.000641,297.173553 365.113068,316.837738 365.139343,336.499847 
	C365.140381,337.269501 365.509827,338.038635 366.029449,340.059998 
	C410.236511,318.938416 453.995911,298.030762 498.551117,276.742859 
	C498.717285,279.189728 498.935730,280.914917 498.936646,282.640198 
	C498.954834,316.300140 498.729614,349.961884 499.009521,383.619507 
	C499.268616,414.771210 480.944214,439.202545 452.380524,449.203552 
	C444.714752,451.887512 436.025513,452.577759 427.802277,452.597656 
	C334.654724,452.823212 241.506424,452.744385 148.358322,452.736664 
	C129.069809,452.735077 111.417145,447.876099 97.234528,434.153442 
	C92.501045,429.573456 88.839935,423.885162 84.523331,418.373016 
M459.025360,204.562912 
	C465.024750,201.542709 471.024170,198.522507 477.023590,195.502289 
	C477.030334,194.963867 477.037109,194.425446 477.043854,193.887024 
	C422.253571,167.596954 367.463287,141.306900 312.619629,114.991241 
	C312.224792,115.994057 311.998840,116.300880 311.998016,116.608315 
	C311.940796,137.428925 311.835724,158.250107 312.004303,179.069061 
	C312.015961,180.508179 313.773926,182.542801 315.232849,183.267303 
	C331.895172,191.541702 348.640076,199.650818 365.398102,207.731186 
	C378.713837,214.151749 392.035614,220.564438 405.470978,226.727112 
	C407.300507,227.566284 410.152740,227.686142 411.943878,226.862045 
	C427.491882,219.708389 442.905579,212.262787 459.025360,204.562912 
z"/>
<path fill="#5DECD4" opacity="1.000000" stroke="none" 
	d="
M134.020737,51.294121 
	C133.569138,51.429401 133.117554,51.564682 132.309570,51.349281 
	C131.807022,50.529812 131.740845,50.014568 131.500412,49.600513 
	C130.598679,48.047623 129.640030,46.527779 128.702728,44.995552 
	C130.802246,44.397141 132.884232,43.390072 135.005508,43.299133 
	C137.953506,43.172749 140.930847,43.964928 143.895813,43.966206 
	C238.713608,44.007027 333.531403,44.005383 428.349213,43.985378 
	C433.860809,43.984215 439.381531,43.911888 444.875885,43.543022 
	C445.919586,43.472950 446.858765,41.845757 447.846161,40.937019 
	C446.866577,40.295082 445.958191,39.449356 444.885315,39.074318 
	C443.993225,38.762478 442.907745,39.000778 441.907928,39.000774 
	C339.424713,39.000298 236.941467,38.986603 134.458313,39.070297 
	C131.547867,39.072674 128.528870,39.794891 125.756454,40.750191 
	C122.422440,41.899006 121.256111,44.225372 122.828827,47.871571 
	C123.709435,49.913166 123.632248,52.367889 123.986618,54.636467 
	C122.987793,55.110470 121.988968,55.584473 120.318817,56.086529 
	C119.100410,56.691120 118.553337,57.267654 118.006256,57.844189 
	C113.814789,62.069546 109.623314,66.294899 104.858459,70.836243 
	C103.908539,71.935471 103.532005,72.718727 103.155472,73.501984 
	C102.167183,76.133049 101.178886,78.764114 99.734085,81.747375 
	C99.186928,82.733940 99.096298,83.368301 99.005661,84.002663 
	C98.948677,84.762184 98.891685,85.521698 98.381897,86.713303 
	C96.296219,88.621925 94.663330,90.098465 93.030441,91.575005 
	C94.448250,92.736855 95.866051,93.898712 97.283859,95.060562 
	C97.285164,118.928215 97.286476,142.795868 97.209747,167.449310 
	C98.074837,168.380630 99.017967,168.526138 99.961098,168.671631 
	C101.315033,168.090027 102.668968,167.508408 104.705597,166.916748 
	C105.921104,166.401443 106.453911,165.896179 106.986717,165.390930 
	C108.272636,164.861938 109.558563,164.332962 111.579903,163.841919 
	C113.542259,162.948166 114.769211,162.016510 115.996162,161.084854 
	C116.342972,160.990097 116.689789,160.895355 117.715714,160.871704 
	C120.013245,161.462677 121.631668,161.982513 124.010109,162.746475 
	C124.010109,160.694016 124.010109,158.997787 124.010109,157.301559 
	C126.625710,156.147400 129.241318,154.993256 132.551147,153.861008 
	C133.825806,153.371780 134.406219,152.860657 134.986633,152.349533 
	C135.987091,151.852859 136.987534,151.356171 138.735367,150.899475 
	C142.320343,149.327011 145.157959,147.714584 147.995560,146.102142 
	C152.286209,144.020844 156.576859,141.939560 161.627731,139.893036 
	C164.255402,138.708420 166.122833,137.489044 167.990265,136.269653 
	C168.964661,135.792542 169.939056,135.315414 171.590454,134.857758 
	C172.842300,134.318100 173.417145,133.758957 173.991989,133.199799 
	C174.356552,133.089340 174.721115,132.978882 175.760376,132.876892 
	C177.955475,131.948303 179.475891,131.011230 180.996307,130.074173 
	C181.335953,129.981033 181.675613,129.887894 182.634338,129.832611 
	C183.833832,129.289383 184.414261,128.708298 184.994690,128.127213 
	C187.315781,127.043404 189.636871,125.959595 192.698517,124.881104 
	C194.958557,123.940895 196.478058,122.995369 197.997543,122.049835 
	C200.363297,120.922752 202.729065,119.795662 205.546112,118.991760 
	C206.569870,119.786781 207.546936,120.748665 207.655685,120.658890 
	C210.489838,118.318840 213.233871,115.869637 215.993423,113.439240 
	C217.279968,112.895981 218.566528,112.352722 220.593170,111.845398 
	C222.554276,110.948776 223.775299,110.016220 224.996323,109.083656 
	C225.347427,108.991386 225.698517,108.899117 226.707001,108.850250 
	C231.549286,108.252510 229.928329,111.498810 229.932236,113.133904 
	C230.019012,149.395935 229.998413,185.658218 229.998245,221.920471 
	C227.691513,222.992981 225.384781,224.065506 222.324554,225.129211 
	C218.714371,226.736877 215.857651,228.353333 213.000931,229.969788 
	C213.000931,229.969788 212.644409,230.106186 212.054474,230.110321 
	C208.645645,231.678207 205.826752,233.241989 203.007874,234.805756 
	C202.636459,234.912308 202.265045,235.018875 201.280121,235.114105 
	C200.115295,235.614609 199.564011,236.126450 199.012726,236.638275 
	C197.230576,237.669205 195.448410,238.700119 193.082840,239.904922 
	C192.176285,240.466476 191.853149,240.854156 191.530029,241.241821 
	C192.002289,241.189392 192.474533,241.136963 192.946793,241.084534 
	C195.435333,242.314682 197.923859,243.544830 200.785614,245.284058 
	C201.897705,246.151962 202.636581,246.510818 203.375458,246.869675 
	C203.745087,246.888824 204.114716,246.907959 204.824478,247.356445 
	C206.863556,248.492386 208.562500,249.198944 210.261444,249.905518 
	C210.261444,249.905518 210.645126,249.897812 210.896362,250.306335 
	C214.200714,252.106689 217.253830,253.498520 220.306946,254.890350 
	C221.363342,255.237823 222.419739,255.585281 223.834473,256.436096 
	C224.911377,257.251434 225.629929,257.563446 226.348480,257.875458 
	C226.722885,257.899261 227.097305,257.923065 227.816376,258.365234 
	C228.916718,259.141357 229.672363,259.499084 230.428024,259.856812 
	C230.787109,259.879272 231.146179,259.901703 231.835968,260.358459 
	C233.870087,261.494873 235.573486,262.196960 237.276901,262.899078 
	C244.074310,265.946960 250.915649,268.901276 257.657928,272.066620 
	C265.931122,275.950653 274.190826,279.878448 282.287415,284.110504 
	C283.847717,284.926056 285.615753,287.227631 285.624023,288.852173 
	C285.808105,325.007385 285.761688,361.163788 285.731415,397.319916 
	C285.730774,398.089447 285.405975,398.858734 285.027618,400.535675 
	C279.423401,398.041199 274.148438,395.845764 269.003479,393.379150 
	C226.422699,372.964905 183.877426,352.476624 141.296906,332.061829 
	C121.507004,322.573792 101.712700,313.091431 81.802902,303.859894 
	C77.609436,301.915527 75.725853,299.588440 76.044456,294.816162 
	C76.476387,288.346527 76.005623,281.820526 76.275932,275.333466 
	C76.345642,273.660461 77.306046,271.161316 78.588837,270.531403 
	C98.282822,260.860138 118.097443,251.434509 137.890533,241.965439 
	C138.176041,241.828857 138.544891,241.866516 139.652496,241.849426 
	C143.354599,240.364075 147.807251,241.529510 149.000366,236.984299 
	C149.000366,236.984299 149.341110,236.861664 149.904694,236.876053 
	C151.977234,235.960526 153.486191,235.030609 154.995148,234.100693 
	C155.342743,234.003830 155.690338,233.906967 156.667786,233.853363 
	C161.613968,233.740158 160.304398,238.585052 162.780701,240.064362 
	C161.759995,241.119003 160.667725,242.114563 159.736038,243.242706 
	C158.465637,244.781036 157.317642,246.420441 156.117157,248.016510 
	C157.388504,248.729050 158.732101,249.340561 159.910324,250.183273 
	C161.028976,250.983383 161.974548,252.025482 162.788742,253.109772 
	C162.360870,253.700653 162.140457,254.142944 161.616287,254.723984 
	C160.295563,255.293930 159.278610,255.725113 157.883331,256.139801 
	C155.647232,257.291473 153.789474,258.459625 151.641159,259.831299 
	C150.012527,260.424225 148.674469,260.813629 147.007935,261.171997 
	C146.102356,261.667023 145.525238,262.193146 144.644165,262.843323 
	C143.333069,263.375244 142.325897,263.783051 140.930969,264.164185 
	C137.688309,265.730774 134.833420,267.324066 131.679688,269.025146 
	C130.394043,269.510101 129.407242,269.887268 128.036697,270.220459 
	C125.761627,271.421753 123.870316,272.667023 121.704544,273.987488 
	C121.053429,274.101288 120.676765,274.139954 119.973618,274.153137 
	C119.080399,274.658569 118.513672,275.189545 117.667343,275.905060 
	C116.352493,276.450836 115.317261,276.812042 113.911331,277.122620 
	C112.689873,277.701477 111.839104,278.331024 110.800003,279.022888 
	C110.611671,279.085266 110.216660,279.122620 109.842712,279.117493 
	C107.973465,280.052460 106.478172,280.992554 104.705139,282.090210 
	C103.429115,282.590759 102.430832,282.933807 101.046555,283.228577 
	C99.494301,284.315063 98.328026,285.449799 97.161758,286.584534 
	C98.206718,287.333160 99.251678,288.081787 100.580856,288.853882 
	C101.230614,288.979736 101.596169,289.082153 102.050217,289.507874 
	C103.807816,290.527100 105.476936,291.223022 107.357361,291.952759 
	C107.568672,291.986542 107.971664,292.130707 108.053619,292.453247 
	C108.883461,293.105988 109.631355,293.436188 110.729805,293.779602 
	C112.365143,294.331299 113.649940,294.869781 115.043976,295.705627 
	C117.202934,296.942322 119.252655,297.881683 121.586197,298.839630 
	C122.234283,298.961182 122.598549,299.064148 123.046097,299.487366 
	C123.881203,300.126038 124.633026,300.444489 125.700623,300.824524 
	C127.001213,301.300659 127.986023,301.715210 129.054047,302.459839 
	C132.183487,304.139496 135.229706,305.489075 138.563599,306.851135 
	C139.223312,306.955750 139.595337,307.047943 140.048309,307.463562 
	C140.881210,308.111908 141.633163,308.436859 142.701187,308.821045 
	C144.003342,309.287628 144.989410,309.694977 146.054901,310.427979 
	C146.881760,311.091797 147.629211,311.429932 148.722305,311.808472 
	C150.356323,312.372314 151.644699,312.895721 153.036987,313.698853 
	C153.837860,314.273895 154.534836,314.569214 155.526123,314.887878 
	C156.197815,315.020721 156.575165,315.130157 157.040726,315.548553 
	C157.864029,316.170288 158.599152,316.483063 159.613983,316.818176 
	C160.249359,316.954376 160.605011,317.068268 161.043732,317.505157 
	C162.512985,318.495728 163.899170,319.163361 165.572235,319.834991 
	C166.232162,319.920654 166.605194,320.002289 167.057129,320.417969 
	C168.816452,321.467987 170.496857,322.183990 172.383881,322.911682 
	C172.590500,322.923309 172.988495,323.036896 173.062943,323.373657 
	C175.228104,324.721710 177.318802,325.733063 179.721436,326.816101 
	C181.011902,327.303497 181.990433,327.719238 183.052917,328.462616 
	C186.174103,330.143158 189.211365,331.496094 192.587372,332.866821 
	C193.930969,333.368591 194.935822,333.852539 196.041321,334.628784 
	C196.859070,335.222717 197.576157,335.524353 198.577820,335.844910 
	C199.230576,335.957031 199.598755,336.050293 200.049316,336.474182 
	C203.184601,338.146393 206.237518,339.487915 209.575745,340.849335 
	C210.228302,340.969360 210.595581,341.069550 211.045197,341.487061 
	C211.866241,342.133728 212.604950,342.463043 213.671616,342.822174 
	C214.983368,343.316315 215.967163,343.780609 217.040039,344.549866 
	C217.850510,345.178101 218.571899,345.501312 219.578690,345.840515 
	C220.231537,345.954987 220.599014,346.053467 221.047211,346.472107 
	C221.871353,347.122009 222.614777,347.451721 223.634445,347.810211 
	C224.259827,347.960754 224.608978,348.082520 225.047638,348.526917 
	C228.820465,350.529480 232.503754,352.209381 236.391479,353.906189 
	C236.595917,353.923126 236.986038,354.050079 237.024521,354.322479 
	C237.697037,354.769073 238.331070,354.943298 239.299591,355.146545 
	C240.060776,355.307495 240.487457,355.439392 241.018677,355.861816 
	C242.863968,357.031525 244.604736,357.910736 246.701630,358.802979 
	C248.348984,359.351837 249.640213,359.887634 251.030212,360.696899 
	C251.796112,361.289795 252.463257,361.609192 253.350555,361.952942 
	C253.570724,361.977325 253.988770,362.123993 254.065125,362.448029 
	C254.884781,363.125458 255.628082,363.478851 256.647675,363.823853 
	C257.280182,363.905426 257.636353,363.995422 258.074707,364.427765 
	C259.913055,365.385681 261.660767,366.347900 263.431061,366.391388 
	C263.919403,366.403412 264.924377,363.679260 264.931946,362.206665 
	C265.033264,342.475098 265.036255,322.742645 264.918732,303.011261 
	C264.910736,301.668457 263.746094,300.332581 262.878357,298.810822 
	C262.096344,298.358826 261.555298,298.089478 260.936646,297.499023 
	C256.541382,293.305176 252.499023,289.020172 246.332306,288.052185 
	C244.962173,287.837097 242.800186,287.628143 242.443436,286.797607 
	C239.747330,280.520660 234.677094,281.500305 229.349670,282.187439 
	C228.718399,282.119446 228.361633,282.040985 227.929840,281.623016 
	C226.127792,279.231628 224.400772,277.179749 222.516617,274.941193 
	C221.197754,275.723022 219.942642,276.467072 218.336029,277.179382 
	C215.661865,276.057281 213.339172,274.966949 210.960510,273.523865 
	C210.440033,272.320190 210.175217,270.979248 209.479492,270.695770 
	C203.885788,268.416260 198.210861,266.336090 192.238312,264.223297 
	C191.279495,264.148193 190.643127,264.044830 189.939209,263.607208 
	C186.661423,259.405670 182.401611,257.681183 177.165314,257.220306 
	C173.873383,255.802094 170.937439,254.387085 167.998627,252.545990 
	C167.663330,247.665771 167.364609,243.208710 166.977371,238.759338 
	C166.864792,237.465714 166.945770,235.645569 166.168137,235.012512 
	C163.562820,232.891678 165.065689,231.010666 166.000351,228.995483 
	C166.952362,228.600159 167.904373,228.204849 169.530853,227.835938 
	C170.802017,227.272354 171.398727,226.682373 171.995453,226.092377 
	C172.340424,225.995575 172.685379,225.898758 173.690063,225.842072 
	C175.896484,226.036316 177.440369,226.250839 178.990906,226.323654 
	C180.057587,226.373749 181.565872,226.660446 182.131989,226.095306 
	C184.890305,223.341797 187.397873,220.337097 189.994171,217.421295 
	C192.118851,216.340363 194.243546,215.259430 196.899323,214.336578 
	C197.952957,214.023392 198.475479,213.552124 198.998016,213.080872 
	C199.351715,212.990494 199.705429,212.900116 200.673096,212.846863 
	C201.854813,212.339874 202.422562,211.795761 202.990311,211.251648 
	C205.191086,209.978622 207.391861,208.705597 210.225525,207.094116 
	C211.238876,205.397842 211.945633,204.041245 211.950684,202.682053 
	C212.022430,183.381027 212.017365,164.079605 211.961899,144.778458 
	C211.957748,143.331284 211.619614,141.796219 211.011520,140.501785 
	C210.858566,140.176178 209.059586,140.623840 208.017059,140.716125 
	C207.029861,141.176727 206.042679,141.637344 204.380386,142.109146 
	C203.138885,142.693054 202.572464,143.265762 202.006058,143.838470 
	C200.728622,144.286591 199.451187,144.734711 197.468750,145.159973 
	C196.176270,145.748062 195.588806,146.359009 195.001358,146.969955 
	C194.663620,147.052429 194.325882,147.134903 193.346313,147.169128 
	C191.472931,148.010727 190.241394,148.900589 189.009857,149.790436 
	C188.664261,149.912415 188.318665,150.034409 187.345520,150.140762 
	C186.147217,150.705933 185.576477,151.286743 185.005722,151.867538 
	C184.655182,151.969452 184.304626,152.071381 183.342438,152.144470 
	C182.157349,152.643997 181.583893,153.172318 181.010422,153.700638 
	C178.676620,154.835999 176.342834,155.971344 173.333679,157.103241 
	C172.109940,157.604095 171.561554,158.108414 171.013153,158.612717 
	C169.715240,159.138153 168.417313,159.663605 166.369995,160.131042 
	C164.414902,161.006058 163.209213,161.939087 162.003540,162.872131 
	C160.337189,163.619171 158.670822,164.366211 156.223450,165.123230 
	C153.384537,165.423920 151.328903,165.932892 149.268250,165.954025 
	C146.202301,165.985458 144.706345,167.176086 145.124649,170.341461 
	C144.287476,170.883911 143.450287,171.426361 142.120468,171.767517 
	C140.754425,172.209183 139.881042,172.852127 139.007645,173.495071 
	C136.885010,174.604874 134.762360,175.714691 132.092422,176.656128 
	C131.030151,176.987747 130.515167,177.487732 130.000198,177.987732 
	C130.000198,177.987732 129.651947,178.119293 129.086334,178.113037 
	C127.016693,179.013779 125.512672,179.920807 124.008659,180.827820 
	C121.237793,182.184509 118.466927,183.541199 115.142250,184.717896 
	C114.058556,185.044479 113.528679,185.551071 112.998810,186.057663 
	C112.998802,186.057663 112.691551,186.175766 112.187653,186.146210 
	C111.124916,186.680679 110.566093,187.244705 110.007263,187.808746 
	C108.526031,188.455582 107.044807,189.102432 105.030167,189.587112 
	C103.999001,189.891342 103.501236,190.357742 103.003471,190.824142 
	C101.034599,191.924896 99.065720,193.025650 96.401520,194.125122 
	C95.139030,194.711685 94.571854,195.299515 94.004677,195.887360 
	C88.913338,198.229568 83.821991,200.571777 78.363182,202.426208 
	C77.947227,163.144241 77.898735,124.350060 77.850243,85.555878 
	C77.715164,85.245552 77.666069,84.922173 78.040474,84.148605 
	C79.029335,83.276978 79.626747,82.677605 80.343521,82.443138 
	C81.729332,81.989830 84.338005,81.889915 84.402748,81.383209 
	C84.650993,79.440666 84.369942,77.301254 83.737312,75.419960 
	C83.302223,74.126137 81.961258,73.136940 81.025192,72.011581 
	C81.127777,71.448174 81.230362,70.884773 81.918488,70.146896 
	C83.943146,70.594734 85.382271,71.217026 86.879654,71.864517 
	C91.374023,67.803726 85.169685,67.635559 84.690765,65.466133 
	C84.985619,64.477837 85.280479,63.489544 86.119995,62.180214 
	C87.058632,61.079369 87.452606,60.299553 87.846588,59.519737 
	C88.084747,58.787766 88.322899,58.055794 89.135521,57.101570 
	C90.116928,56.188763 90.523872,55.498211 90.930809,54.807659 
	C93.961586,51.545540 96.992363,48.283417 100.744797,44.950500 
	C103.977882,42.917465 106.489304,40.955223 109.000717,38.992973 
	C109.000717,38.992973 109.305946,38.852474 109.865196,38.867996 
	C112.280968,37.694344 114.137482,36.505169 115.994003,35.315994 
	C117.281219,34.805595 118.568428,34.295193 120.622284,33.827560 
	C123.916733,32.785828 126.444542,31.701321 128.972351,30.616814 
	C130.728012,30.442652 132.483688,30.268488 135.002502,30.387035 
	C137.084641,30.786957 138.403610,30.987837 139.722595,30.988031 
	C238.179184,31.002632 336.635773,31.005165 435.092377,30.968033 
	C436.692902,30.967430 438.293243,30.466940 439.893677,30.199722 
	C441.657074,30.240589 443.420471,30.281460 445.730133,30.731377 
	C449.001038,32.044975 451.725647,32.949520 454.450287,33.854073 
	C455.096069,33.878227 455.741882,33.902382 456.771362,34.360310 
	C458.579865,35.480690 460.004639,36.167290 461.429443,36.853889 
	C462.483459,37.137024 463.537445,37.420158 464.853455,38.317650 
	C466.482635,39.593021 467.849823,40.254032 469.216980,40.915051 
	C469.708130,41.131226 470.199249,41.347401 470.843475,42.122681 
	C470.998108,43.120731 470.999664,43.559681 470.616547,43.989380 
	C466.485565,42.889141 462.737305,40.762501 458.686768,43.834373 
	C456.807251,43.491398 455.239899,43.314915 453.672516,43.138432 
	C453.862579,45.108162 453.375092,47.683582 454.438202,48.872810 
	C455.448120,50.002472 458.080078,49.682087 460.346313,50.070206 
	C464.201416,53.091728 463.667297,55.684944 459.685272,57.860455 
	C458.274536,57.479656 457.177277,57.239376 456.080048,56.999096 
	C455.567291,56.719147 455.054504,56.439201 454.233337,55.778263 
	C453.306458,55.216427 452.688019,55.035576 452.069580,54.854729 
	C451.226868,54.621964 450.384155,54.389202 449.284210,53.604271 
	C449.940918,50.062462 449.994141,47.676140 445.734589,48.056622 
	C441.748749,48.412647 437.756195,48.951710 433.765808,48.958435 
	C393.958923,49.025524 354.151947,48.998951 314.344971,48.998947 
	C256.383362,48.998947 198.421677,48.974472 140.460297,49.095928 
	C138.312256,49.100430 136.167191,50.529129 134.020737,51.294121 
M109.245430,181.434143 
	C110.479988,180.799973 111.714546,180.165817 112.949112,179.531647 
	C112.189636,178.724716 111.430161,177.917786 110.670692,177.110855 
	C110.009056,178.379196 109.347420,179.647537 109.245430,181.434143 
M136.438080,162.102692 
	C135.621384,163.435699 134.804688,164.768692 133.987991,166.101700 
	C134.540848,166.529526 135.093689,166.957367 135.646545,167.385193 
	C136.974014,165.863754 138.301468,164.342316 139.628937,162.820877 
	C138.746170,162.437881 137.863403,162.054871 136.438080,162.102692 
M83.319580,191.029205 
	C84.784294,190.628464 86.249008,190.227722 87.713715,189.826981 
	C87.138657,188.965652 86.563591,188.104340 85.988533,187.243011 
	C85.029655,188.269882 84.070778,189.296738 83.319580,191.029205 
M225.747238,122.161034 
	C224.967667,121.594757 224.188095,121.028481 223.408539,120.462204 
	C223.092056,121.121307 222.775589,121.780418 222.459106,122.439522 
	C223.458908,122.548454 224.458710,122.657394 225.747238,122.161034 
M197.860611,224.392258 
	C197.944763,225.151474 198.028931,225.910675 198.113098,226.669891 
	C198.548309,226.556580 198.983536,226.443283 199.418747,226.329971 
	C199.113281,225.632019 198.807800,224.934082 197.860611,224.392258 
M163.176804,144.544434 
	C163.181549,144.192459 163.189560,143.840332 163.172714,143.489395 
	C163.172272,143.480423 162.772171,143.474411 162.771393,143.484024 
	C162.743423,143.834229 162.740753,144.186432 163.176804,144.544434 
z"/>
<path fill="#5EECD5" opacity="1.000000" stroke="none" 
	d="
M459.998779,58.000973 
	C463.667297,55.684944 464.201416,53.091728 460.345673,49.683746 
	C459.664642,47.484554 459.331787,45.742710 458.998932,44.000866 
	C462.737305,40.762501 466.485565,42.889141 471.001831,43.983017 
	C472.286591,43.950104 472.801483,43.914310 473.316345,43.878517 
	C487.368744,54.133694 496.276825,68.023430 497.630829,85.139915 
	C499.201813,104.999603 498.609375,125.030891 498.936890,144.988007 
	C498.990082,148.229950 498.944366,151.473495 498.944366,156.434906 
	C491.144592,152.484741 484.646667,149.398056 478.418579,145.839157 
	C477.378052,145.244583 477.166382,142.601593 477.153870,140.900879 
	C477.057251,127.745949 476.792572,114.580666 477.185272,101.436676 
	C477.671875,85.150909 472.411163,71.466423 460.192993,59.839355 
	C460.010559,58.825932 460.004669,58.413452 459.998779,58.000973 
z"/>
<path fill="#5FEBD4" opacity="1.000000" stroke="none" 
	d="
M124.346542,54.668869 
	C123.632248,52.367889 123.709435,49.913166 122.828827,47.871571 
	C121.256111,44.225372 122.422440,41.899006 125.756454,40.750191 
	C128.528870,39.794891 131.547867,39.072674 134.458313,39.070297 
	C236.941467,38.986603 339.424713,39.000298 441.907928,39.000774 
	C442.907745,39.000778 443.993225,38.762478 444.885315,39.074318 
	C445.958191,39.449356 446.866577,40.295082 447.846161,40.937019 
	C446.858765,41.845757 445.919586,43.472950 444.875885,43.543022 
	C439.381531,43.911888 433.860809,43.984215 428.349213,43.985378 
	C333.531403,44.005383 238.713608,44.007027 143.895813,43.966206 
	C140.930847,43.964928 137.953506,43.172749 135.005508,43.299133 
	C132.884232,43.390072 130.802246,44.397141 128.702728,44.995552 
	C129.640030,46.527779 130.598679,48.047623 131.500412,49.600513 
	C131.740845,50.014568 131.807022,50.529812 131.954697,51.326527 
	C129.539627,52.670063 127.123047,53.685669 124.346542,54.668869 
z"/>
<path fill="#5FEBD4" opacity="1.000000" stroke="none" 
	d="
M134.415421,51.430897 
	C136.167191,50.529129 138.312256,49.100430 140.460297,49.095928 
	C198.421677,48.974472 256.383362,48.998947 314.344971,48.998947 
	C354.151947,48.998951 393.958923,49.025524 433.765808,48.958435 
	C437.756195,48.951710 441.748749,48.412647 445.734589,48.056622 
	C449.994141,47.676140 449.940918,50.062462 449.018219,53.400269 
	C439.809723,52.784096 430.611847,51.003006 421.409943,50.981888 
	C330.350922,50.772907 239.291214,50.845379 148.231705,50.885742 
	C143.757736,50.887726 139.283966,51.330273 134.415421,51.430897 
z"/>
<path fill="#5FEBD4" opacity="1.000000" stroke="none" 
	d="
M439.604004,29.912416 
	C438.293243,30.466940 436.692902,30.967430 435.092377,30.968033 
	C336.635773,31.005165 238.179184,31.002632 139.722595,30.988031 
	C138.403610,30.987837 137.084641,30.786957 135.443542,30.449579 
	C138.677872,29.840286 142.234070,29.132614 145.790771,29.130106 
	C233.335785,29.068357 320.880859,29.080469 408.425934,29.082510 
	C416.914093,29.082708 425.402466,29.074598 433.890228,29.137114 
	C435.699371,29.150438 437.506378,29.454819 439.604004,29.912416 
z"/>
<path fill="#5FEBD4" opacity="1.000000" stroke="none" 
	d="
M230.379425,221.827850 
	C229.998413,185.658218 230.019012,149.395935 229.932236,113.133904 
	C229.928329,111.498810 231.549286,108.252510 226.979462,108.876083 
	C228.005676,107.951813 229.416824,107.045120 231.460114,105.732254 
	C231.673798,107.985245 231.897171,109.245483 231.897781,110.505829 
	C231.914871,145.890701 231.925262,181.275620 231.859024,216.660385 
	C231.855865,218.352692 231.142960,220.043640 230.379425,221.827850 
z"/>
<path fill="#5FEBD4" opacity="1.000000" stroke="none" 
	d="
M77.515045,85.792290 
	C77.898735,124.350060 77.947227,163.144241 77.990234,202.391769 
	C77.415237,202.701050 76.386215,202.626724 76.352013,202.401398 
	C76.154167,201.098099 76.153870,199.759201 76.153809,198.432358 
	C76.152054,163.034927 76.141464,127.637474 76.206978,92.240158 
	C76.210815,90.169075 76.841087,88.099159 77.515045,85.792290 
z"/>
<path fill="#5FEBD4" opacity="1.000000" stroke="none" 
	d="
M162.996216,252.961182 
	C161.974548,252.025482 161.028976,250.983383 159.910324,250.183273 
	C158.732101,249.340561 157.388504,248.729050 156.117157,248.016510 
	C157.317642,246.420441 158.465637,244.781036 159.736038,243.242706 
	C160.667725,242.114563 161.759995,241.119003 162.780701,240.064362 
	C160.304398,238.585052 161.613968,233.740158 156.938904,233.876068 
	C159.477081,232.260040 162.373978,230.664536 165.635620,229.032257 
	C165.065689,231.010666 163.562820,232.891678 166.168137,235.012512 
	C166.945770,235.645569 166.864792,237.465714 166.977371,238.759338 
	C167.364609,243.208710 167.663330,247.665771 167.621185,252.567291 
	C166.240158,253.056839 165.233704,253.098999 163.921112,253.085114 
	C163.408737,253.006454 163.202484,252.983826 162.996216,252.961182 
z"/>
<path fill="#5FEBD4" opacity="1.000000" stroke="none" 
	d="
M208.362167,140.949356 
	C209.059586,140.623840 210.858566,140.176178 211.011520,140.501785 
	C211.619614,141.796219 211.957748,143.331284 211.961899,144.778458 
	C212.017365,164.079605 212.022430,183.381027 211.950684,202.682053 
	C211.945633,204.041245 211.238876,205.397842 210.485687,206.873260 
	C210.076401,187.084869 210.076889,167.178619 209.947128,147.273209 
	C209.933868,145.240387 209.139297,143.212677 208.362167,140.949356 
z"/>
<path fill="#5FEBD4" opacity="1.000000" stroke="none" 
	d="
M80.752396,72.240219 
	C81.961258,73.136940 83.302223,74.126137 83.737312,75.419960 
	C84.369942,77.301254 84.650993,79.440666 84.402748,81.383209 
	C84.338005,81.889915 81.729332,81.989830 80.343521,82.443138 
	C79.626747,82.677605 79.029335,83.276978 78.087692,83.905830 
	C78.691460,80.223068 79.585533,76.345963 80.752396,72.240219 
z"/>
<path fill="#5FEBD4" opacity="1.000000" stroke="none" 
	d="
M189.653290,217.377670 
	C187.397873,220.337097 184.890305,223.341797 182.131989,226.095306 
	C181.565872,226.660446 180.057587,226.373749 178.990906,226.323654 
	C177.440369,226.250839 175.896484,226.036316 173.959045,225.869080 
	C178.816360,223.015305 184.064377,220.174667 189.653290,217.377670 
z"/>
<path fill="#5FEBD4" opacity="1.000000" stroke="none" 
	d="
M97.482544,94.754196 
	C95.866051,93.898712 94.448250,92.736855 93.030441,91.575005 
	C94.663330,90.098465 96.296219,88.621925 98.260513,87.075905 
	C98.288361,89.486900 97.984795,91.967361 97.482544,94.754196 
z"/>
<path fill="#5FEBD4" opacity="1.000000" stroke="none" 
	d="
M145.506638,170.290588 
	C144.706345,167.176086 146.202301,165.985458 149.268250,165.954025 
	C151.328903,165.932892 153.384537,165.423920 155.878082,165.121765 
	C152.838730,166.820129 149.363678,168.529938 145.506638,170.290588 
z"/>
<path fill="#5FEBD4" opacity="1.000000" stroke="none" 
	d="
M215.654160,113.392914 
	C213.233871,115.869637 210.489838,118.318840 207.655685,120.658890 
	C207.546936,120.748665 206.569870,119.786781 205.909149,118.945343 
	C208.985550,116.832695 212.150223,115.089645 215.654160,113.392914 
z"/>
<path fill="#5FEBD4" opacity="1.000000" stroke="none" 
	d="
M84.376480,65.609055 
	C85.169685,67.635559 91.374023,67.803726 86.879654,71.864517 
	C85.382271,71.217026 83.943146,70.594734 82.114319,69.932205 
	C82.503799,68.511971 83.282997,67.131973 84.376480,65.609055 
z"/>
<path fill="#5FEBD4" opacity="1.000000" stroke="none" 
	d="
M123.664230,157.281342 
	C124.010109,158.997787 124.010109,160.694016 124.010109,162.746475 
	C121.631668,161.982513 120.013245,161.462677 117.985680,160.896454 
	C119.490479,159.653778 121.404419,158.457458 123.664230,157.281342 
z"/>
<path fill="#5FEBD4" opacity="1.000000" stroke="none" 
	d="
M148.634430,237.018784 
	C147.807251,241.529510 143.354599,240.364075 140.021240,241.871826 
	C142.497726,240.262848 145.383102,238.658051 148.634430,237.018784 
z"/>
<path fill="#5FEBD4" opacity="1.000000" stroke="none" 
	d="
M108.650658,39.039032 
	C106.489304,40.955223 103.977882,42.917465 101.067497,44.881195 
	C103.212555,42.950153 105.756577,41.017620 108.650658,39.039032 
z"/>
<path fill="#5FEBD4" opacity="1.000000" stroke="none" 
	d="
M147.633362,146.126343 
	C145.157959,147.714584 142.320343,149.327011 139.076965,150.908386 
	C141.537857,149.301727 144.404510,147.726135 147.633362,146.126343 
z"/>
<path fill="#5FEBD4" opacity="1.000000" stroke="none" 
	d="
M203.362061,234.793701 
	C205.826752,233.241989 208.645645,231.678207 211.863708,230.104248 
	C209.414001,231.656586 206.565125,233.219116 203.362061,234.793701 
z"/>
<path fill="#5FEBD4" opacity="1.000000" stroke="none" 
	d="
M213.364319,229.933228 
	C215.857651,228.353333 218.714371,226.736877 221.974579,225.124878 
	C219.494629,226.718460 216.611176,228.307571 213.364319,229.933228 
z"/>
<path fill="#5FEBD4" opacity="1.000000" stroke="none" 
	d="
M220.131699,254.587479 
	C217.253830,253.498520 214.200714,252.106689 211.074814,250.376831 
	C213.986847,251.454071 216.971649,252.869339 220.131699,254.587479 
z"/>
<path fill="#5FEBD4" opacity="1.000000" stroke="none" 
	d="
M128.624695,30.523825 
	C126.444542,31.701321 123.916733,32.785828 120.975891,33.864487 
	C123.134254,32.716042 125.705650,31.573439 128.624695,30.523825 
z"/>
<path fill="#5FEBD4" opacity="1.000000" stroke="none" 
	d="
M454.262024,33.541008 
	C451.725647,32.949520 449.001038,32.044975 446.152527,30.858604 
	C448.710327,31.460505 451.392059,32.344223 454.262024,33.541008 
z"/>
<path fill="#5FEBD4" opacity="1.000000" stroke="none" 
	d="
M115.650269,35.295303 
	C114.137482,36.505169 112.280968,37.694344 110.032822,38.879196 
	C111.529648,37.674786 113.418091,36.474697 115.650269,35.295303 
z"/>
<path fill="#5FEBD4" opacity="1.000000" stroke="none" 
	d="
M167.647095,136.264191 
	C166.122833,137.489044 164.255402,138.708420 161.988693,139.891296 
	C163.494278,138.656097 165.399109,137.457413 167.647095,136.264191 
z"/>
<path fill="#5FEBD4" opacity="1.000000" stroke="none" 
	d="
M154.646332,234.129669 
	C153.486191,235.030609 151.977234,235.960526 150.085114,236.891373 
	C151.233810,235.981079 152.765671,235.069870 154.646332,234.129669 
z"/>
<path fill="#5FEBD4" opacity="1.000000" stroke="none" 
	d="
M197.646545,122.080254 
	C196.478058,122.995369 194.958557,123.940895 193.050797,124.883698 
	C194.206863,123.957527 195.751205,123.034096 197.646545,122.080254 
z"/>
<path fill="#5FEBD4" opacity="1.000000" stroke="none" 
	d="
M124.356094,180.810730 
	C125.512672,179.920807 127.016693,179.013779 128.900421,178.103638 
	C127.754608,178.998215 126.229073,179.895935 124.356094,180.810730 
z"/>
<path fill="#5FEBD4" opacity="1.000000" stroke="none" 
	d="
M210.103165,249.602341 
	C208.562500,249.198944 206.863556,248.492386 205.085602,247.455994 
	C206.652679,247.850510 208.298782,248.574829 210.103165,249.602341 
z"/>
<path fill="#5FEBD4" opacity="1.000000" stroke="none" 
	d="
M162.339966,162.845337 
	C163.209213,161.939087 164.414902,161.006058 166.017242,160.110031 
	C165.168045,161.037537 163.922211,161.928040 162.339966,162.845337 
z"/>
<path fill="#5FEBD4" opacity="1.000000" stroke="none" 
	d="
M237.113571,262.598206 
	C235.573486,262.196960 233.870087,261.494873 232.086853,260.463440 
	C233.654785,260.855164 235.302521,261.576233 237.113571,262.598206 
z"/>
<path fill="#5FEBD4" opacity="1.000000" stroke="none" 
	d="
M180.646393,130.105164 
	C179.475891,131.011230 177.955475,131.948303 176.047241,132.881836 
	C177.205124,131.964279 178.750793,131.050232 180.646393,130.105164 
z"/>
<path fill="#5FEBD4" opacity="1.000000" stroke="none" 
	d="
M469.025574,40.643814 
	C467.849823,40.254032 466.482635,39.593021 465.026184,38.603462 
	C466.236023,38.974144 467.535095,39.673367 469.025574,40.643814 
z"/>
<path fill="#5FEBD4" opacity="1.000000" stroke="none" 
	d="
M461.260834,36.555344 
	C460.004639,36.167290 458.579865,35.480690 457.080505,34.461342 
	C458.368073,34.837997 459.730164,35.547398 461.260834,36.555344 
z"/>
<path fill="#5FEBD4" opacity="1.000000" stroke="none" 
	d="
M459.685272,57.860455 
	C460.004669,58.413452 460.010559,58.825932 460.030914,59.546135 
	C458.809509,59.097084 457.573700,58.340305 456.208954,57.291313 
	C457.177277,57.239376 458.274536,57.479656 459.685272,57.860455 
z"/>
<path fill="#5FEBD4" opacity="1.000000" stroke="none" 
	d="
M189.348572,149.789139 
	C190.241394,148.900589 191.472931,148.010727 193.086182,147.136505 
	C192.207703,148.030701 190.947510,148.909271 189.348572,149.789139 
z"/>
<path fill="#5FEBD4" opacity="1.000000" stroke="none" 
	d="
M224.655121,109.102142 
	C223.775299,110.016220 222.554276,110.948776 220.949997,111.867180 
	C221.815796,110.942230 223.064865,110.031425 224.655121,109.102142 
z"/>
<path fill="#5FEBD4" opacity="1.000000" stroke="none" 
	d="
M115.654861,161.106171 
	C114.769211,162.016510 113.542259,162.948166 111.930275,163.865295 
	C112.801346,162.942993 114.057449,162.035233 115.654861,161.106171 
z"/>
<path fill="#5FEBD4" opacity="1.000000" stroke="none" 
	d="
M139.305038,173.571106 
	C139.881042,172.852127 140.754425,172.209183 141.812469,171.780334 
	C141.198898,172.545334 140.400665,173.096237 139.305038,173.571106 
z"/>
<path fill="#5FEBD4" opacity="1.000000" stroke="none" 
	d="
M99.627266,168.489899 
	C99.017967,168.526138 98.074837,168.380630 97.139282,167.884506 
	C97.862396,167.791977 98.577911,168.050079 99.627266,168.489899 
z"/>
<path fill="#5FEBD4" opacity="1.000000" stroke="none" 
	d="
M171.311722,158.645416 
	C171.561554,158.108414 172.109940,157.604095 172.977127,157.103943 
	C172.734039,157.631424 172.172165,158.154770 171.311722,158.645416 
z"/>
<path fill="#5FEBD4" opacity="1.000000" stroke="none" 
	d="
M473.172760,43.594894 
	C472.801483,43.914310 472.286591,43.950104 471.386475,43.992264 
	C470.999664,43.559681 470.998108,43.120731 470.994812,42.352753 
	C471.671783,42.452908 472.350464,42.882092 473.172760,43.594894 
z"/>
<path fill="#5FEBD4" opacity="1.000000" stroke="none" 
	d="
M452.224274,55.107807 
	C452.688019,55.035576 453.306458,55.216427 453.961609,55.664536 
	C453.458557,55.741497 452.918762,55.551193 452.224274,55.107807 
z"/>
<path fill="#5FEBD4" opacity="1.000000" stroke="none" 
	d="
M90.637199,54.918201 
	C90.523872,55.498211 90.116928,56.188763 89.393417,56.950615 
	C89.499100,56.357529 89.921341,55.693134 90.637199,54.918201 
z"/>
<path fill="#5FEBD4" opacity="1.000000" stroke="none" 
	d="
M118.314682,57.825653 
	C118.553337,57.267654 119.100410,56.691120 119.987305,56.115387 
	C119.759109,56.679825 119.191109,57.243469 118.314682,57.825653 
z"/>
<path fill="#5FEBD4" opacity="1.000000" stroke="none" 
	d="
M87.546982,59.671761 
	C87.452606,60.299553 87.058632,61.079369 86.315552,61.930531 
	C86.393417,61.275848 86.820389,60.549816 87.546982,59.671761 
z"/>
<path fill="#5FEBD4" opacity="1.000000" stroke="none" 
	d="
M103.437286,73.331451 
	C103.532005,72.718727 103.908539,71.935471 104.628143,71.076736 
	C104.553833,71.721146 104.136467,72.441040 103.437286,73.331451 
z"/>
<path fill="#5FEBD4" opacity="1.000000" stroke="none" 
	d="
M99.223312,83.815521 
	C99.096298,83.368301 99.186928,82.733940 99.537277,82.053009 
	C99.678307,82.547089 99.559639,83.087738 99.223312,83.815521 
z"/>
<path fill="#5FEBD4" opacity="1.000000" stroke="none" 
	d="
M184.676056,128.138428 
	C184.414261,128.708298 183.833832,129.289383 182.898468,129.860641 
	C183.148178,129.283783 183.752808,128.716721 184.676056,128.138428 
z"/>
<path fill="#5FEBD4" opacity="1.000000" stroke="none" 
	d="
M173.683151,133.210297 
	C173.417145,133.758957 172.842300,134.318100 171.920624,134.867142 
	C172.173981,134.311630 172.774139,133.766220 173.683151,133.210297 
z"/>
<path fill="#5FEBD4" opacity="1.000000" stroke="none" 
	d="
M202.319427,143.831406 
	C202.572464,143.265762 203.138885,142.693054 204.052551,142.127930 
	C203.810822,142.698471 203.221817,143.261414 202.319427,143.831406 
z"/>
<path fill="#5FEBD4" opacity="1.000000" stroke="none" 
	d="
M195.323029,146.935684 
	C195.588806,146.359009 196.176270,145.748062 197.129333,145.144958 
	C196.878189,145.735672 196.261444,146.318542 195.323029,146.935684 
z"/>
<path fill="#5FEBD4" opacity="1.000000" stroke="none" 
	d="
M185.315262,151.840836 
	C185.576477,151.286743 186.147217,150.705933 187.069366,150.132950 
	C186.822113,150.698547 186.223450,151.256332 185.315262,151.840836 
z"/>
<path fill="#5FEBD4" opacity="1.000000" stroke="none" 
	d="
M134.679596,152.318619 
	C134.406219,152.860657 133.825806,153.371780 132.910461,153.869812 
	C133.174530,153.333710 133.773544,152.810699 134.679596,152.318619 
z"/>
<path fill="#5FEBD4" opacity="1.000000" stroke="none" 
	d="
M181.319489,153.721619 
	C181.583893,153.172318 182.157349,152.643997 183.067719,152.127045 
	C182.812622,152.673157 182.220596,153.207886 181.319489,153.721619 
z"/>
<path fill="#5FEBD4" opacity="1.000000" stroke="none" 
	d="
M106.689545,165.359283 
	C106.453911,165.896179 105.921104,166.401443 105.076416,166.910095 
	C105.307144,166.384872 105.849754,165.856262 106.689545,165.359283 
z"/>
<path fill="#5FEBD4" opacity="1.000000" stroke="none" 
	d="
M130.300827,177.970947 
	C130.515167,177.487732 131.030151,176.987747 131.733887,176.666779 
	C131.482254,177.215256 131.041855,177.584717 130.300827,177.970947 
z"/>
<path fill="#5FEBD4" opacity="1.000000" stroke="none" 
	d="
M113.300110,186.033203 
	C113.528679,185.551071 114.058556,185.044479 114.776199,184.733276 
	C114.509773,185.288696 114.055588,185.648712 113.300110,186.033203 
z"/>
<path fill="#5FEBD4" opacity="1.000000" stroke="none" 
	d="
M110.315529,187.798645 
	C110.566093,187.244705 111.124916,186.680679 112.024811,186.122284 
	C111.785187,186.681458 111.204491,187.234985 110.315529,187.798645 
z"/>
<path fill="#5FEBD4" opacity="1.000000" stroke="none" 
	d="
M103.296677,190.824036 
	C103.501236,190.357742 103.999001,189.891342 104.683128,189.580780 
	C104.442955,190.099060 104.016418,190.461502 103.296677,190.824036 
z"/>
<path fill="#5FEBD4" opacity="1.000000" stroke="none" 
	d="
M94.319153,195.868332 
	C94.571854,195.299515 95.139030,194.711685 96.058212,194.130676 
	C95.818016,194.708115 95.225822,195.278702 94.319153,195.868332 
z"/>
<path fill="#5FEBD4" opacity="1.000000" stroke="none" 
	d="
M202.684799,211.251587 
	C202.422562,211.795761 201.854813,212.339874 200.946930,212.874237 
	C201.197632,212.326828 201.788452,211.789169 202.684799,211.251587 
z"/>
<path fill="#5FEBD4" opacity="1.000000" stroke="none" 
	d="
M198.703903,213.086182 
	C198.475479,213.552124 197.952957,214.023392 197.246735,214.311523 
	C197.511932,213.782761 197.960861,213.437134 198.703903,213.086182 
z"/>
<path fill="#5FEBD4" opacity="1.000000" stroke="none" 
	d="
M171.676346,226.121735 
	C171.398727,226.682373 170.802017,227.272354 169.842621,227.852325 
	C170.105698,227.278580 170.731476,226.714828 171.676346,226.121735 
z"/>
<path fill="#5FEBD4" opacity="1.000000" stroke="none" 
	d="
M199.311935,236.663651 
	C199.564011,236.126450 200.115295,235.614609 200.989227,235.107727 
	C200.744949,235.638138 200.178040,236.163574 199.311935,236.663651 
z"/>
<path fill="#5FEBD4" opacity="1.000000" stroke="none" 
	d="
M192.989807,240.818924 
	C192.474533,241.136963 192.002289,241.189392 191.530029,241.241821 
	C191.853149,240.854156 192.176285,240.466476 192.773529,240.047104 
	C193.042679,240.194717 193.037750,240.374023 192.989807,240.818924 
z"/>
<path fill="#5FEBD4" opacity="1.000000" stroke="none" 
	d="
M203.216797,246.595016 
	C202.636581,246.510818 201.897705,246.151962 201.082825,245.473862 
	C201.690598,245.543198 202.374374,245.931778 203.216797,246.595016 
z"/>
<path fill="#5FEBD4" opacity="1.000000" stroke="none" 
	d="
M226.203430,257.601440 
	C225.629929,257.563446 224.911377,257.251434 224.103912,256.647552 
	C224.696136,256.679596 225.377243,257.003479 226.203430,257.601440 
z"/>
<path fill="#5FEBD4" opacity="1.000000" stroke="none" 
	d="
M230.267548,259.576752 
	C229.672363,259.499084 228.916718,259.141357 228.083496,258.458191 
	C228.706314,258.520752 229.406677,258.908722 230.267548,259.576752 
z"/>
<path fill="#E4E6E6" opacity="1.000000" stroke="none" 
	d="
M458.692291,204.733490 
	C442.905579,212.262787 427.491882,219.708389 411.943878,226.862045 
	C410.152740,227.686142 407.300507,227.566284 405.470978,226.727112 
	C392.035614,220.564438 378.713837,214.151749 365.398102,207.731186 
	C348.640076,199.650818 331.895172,191.541702 315.232849,183.267303 
	C313.773926,182.542801 312.015961,180.508179 312.004303,179.069061 
	C311.835724,158.250107 311.940796,137.428925 311.998016,116.608315 
	C311.998840,116.300880 312.224792,115.994057 312.619629,114.991241 
	C367.463287,141.306900 422.253571,167.596954 477.043854,193.887024 
	C477.037109,194.425446 477.030334,194.963867 477.023590,195.502289 
	C471.024170,198.522507 465.024750,201.542709 458.692291,204.733490 
z"/>
<path fill="#E4E6E6" opacity="1.000000" stroke="none" 
	d="
M164.227264,253.141144 
	C165.233704,253.098999 166.240158,253.056839 167.624039,252.993378 
	C170.937439,254.387085 173.873383,255.802094 177.359009,257.515198 
	C181.941391,259.856018 185.974075,261.898743 190.006744,263.941467 
	C190.643127,264.044830 191.279495,264.148193 192.411957,264.531738 
	C198.944199,267.833435 204.980347,270.855011 211.016495,273.876587 
	C213.339172,274.966949 215.661865,276.057281 218.509125,277.477173 
	C222.024078,279.191986 225.014465,280.577271 228.004852,281.962524 
	C228.361633,282.040985 228.718399,282.119446 229.527115,282.492371 
	C240.324127,287.797913 250.669205,292.809021 261.014282,297.820129 
	C261.555298,298.089478 262.096344,298.358826 262.861389,299.279480 
	C263.085388,321.496796 263.085388,343.062866 263.085388,365.088867 
	C260.832489,364.644989 259.412506,364.365234 257.992554,364.085449 
	C257.636353,363.995422 257.280182,363.905426 256.497925,363.541321 
	C255.377487,362.886169 254.683121,362.505096 253.988770,362.123993 
	C253.988770,362.123993 253.570724,361.977325 253.247498,361.664490 
	C252.260010,361.042236 251.595734,360.732819 250.931458,360.423401 
	C249.640213,359.887634 248.348984,359.351837 246.541687,358.508362 
	C244.321808,357.324219 242.617981,356.447754 240.914154,355.571289 
	C240.487457,355.439392 240.060776,355.307495 239.143372,354.887146 
	C238.097107,354.415802 237.541580,354.232941 236.986038,354.050079 
	C236.986038,354.050079 236.595917,353.923126 236.243622,353.596619 
	C232.246933,351.581543 228.602524,349.892914 224.958130,348.204285 
	C224.608978,348.082520 224.259827,347.960754 223.476196,347.542053 
	C222.349945,346.880707 221.658218,346.516327 220.966476,346.151947 
	C220.599014,346.053467 220.231537,345.954987 219.436188,345.564331 
	C218.322525,344.929779 217.636749,344.587341 216.950989,344.244873 
	C215.967163,343.780609 214.983368,343.316315 213.515900,342.551941 
	C212.342438,341.891144 211.652649,341.530426 210.962860,341.169739 
	C210.595581,341.069550 210.228302,340.969360 209.412079,340.543518 
	C205.964401,338.859741 202.965668,337.501648 199.966949,336.143555 
	C199.598755,336.050293 199.230576,335.957031 198.438004,335.567749 
	C197.322632,334.959961 196.631653,334.648254 195.940674,334.336517 
	C194.935822,333.852539 193.930969,333.368591 192.421448,332.566437 
	C188.934174,330.877167 185.951584,329.506073 182.968979,328.134979 
	C181.990433,327.719238 181.011902,327.303497 179.545578,326.518555 
	C177.034698,325.111847 175.011597,324.074371 172.988495,323.036896 
	C172.988495,323.036896 172.590500,322.923309 172.243149,322.604340 
	C170.256607,321.551544 168.617416,320.817749 166.978210,320.083954 
	C166.605194,320.002289 166.232162,319.920654 165.419800,319.539001 
	C163.640518,318.553375 162.300583,317.867767 160.960648,317.182190 
	C160.605011,317.068268 160.249359,316.954376 159.457397,316.551758 
	C158.331573,315.921875 157.642044,315.580719 156.952530,315.239594 
	C156.575165,315.130157 156.197815,315.020721 155.396347,314.608948 
	C154.292511,314.010803 153.612778,313.714966 152.933060,313.419128 
	C151.644699,312.895721 150.356323,312.372314 148.565842,311.534302 
	C147.367645,310.847229 146.671570,310.474762 145.975494,310.102325 
	C144.989410,309.694977 144.003342,309.287628 142.539261,308.553284 
	C141.363297,307.864227 140.665329,307.502167 139.967361,307.140137 
	C139.595337,307.047943 139.223312,306.955750 138.402405,306.544464 
	C134.959290,304.860168 131.965057,303.494965 128.970840,302.129761 
	C127.986023,301.715210 127.001213,301.300659 125.540649,300.555420 
	C124.364204,299.872192 123.663506,299.519653 122.962814,299.167114 
	C122.598549,299.064148 122.234283,298.961182 121.428864,298.538696 
	C118.970047,297.282196 116.952385,296.345245 114.934731,295.408295 
	C113.649940,294.869781 112.365143,294.331299 110.578705,293.502380 
	C109.375259,292.851562 108.673462,292.491119 107.971664,292.130707 
	C107.971664,292.130707 107.568672,291.986542 107.241470,291.632935 
	C105.263420,290.581085 103.612572,289.882843 101.961723,289.184570 
	C101.596169,289.082153 101.230614,288.979736 100.483078,288.491760 
	C100.544922,286.496460 100.988739,284.886658 101.432556,283.276855 
	C102.430832,282.933807 103.429115,282.590759 105.057793,282.063416 
	C107.197678,280.960297 108.707169,280.041473 110.216660,279.122620 
	C110.216660,279.122620 110.611671,279.085266 111.140846,279.032471 
	C112.540688,278.377563 113.411354,277.775391 114.282021,277.173248 
	C115.317261,276.812042 116.352493,276.450836 117.976334,275.929260 
	C119.143326,275.238770 119.721718,274.708679 120.300102,274.178589 
	C120.676765,274.139954 121.053429,274.101288 122.062012,273.971741 
	C124.602768,272.675323 126.511604,271.469879 128.420441,270.264465 
	C129.407242,269.887268 130.394043,269.510101 132.046402,269.001526 
	C135.580887,267.310394 138.449814,265.750610 141.318741,264.190857 
	C142.325897,263.783051 143.333069,263.375244 144.954590,262.872589 
	C146.158081,262.252869 146.747238,261.727966 147.336395,261.203064 
	C148.674469,260.813629 150.012527,260.424225 151.987183,259.877533 
	C154.503067,258.532288 156.382355,257.344299 158.261658,256.156311 
	C159.278610,255.725113 160.295563,255.293930 161.920563,254.778656 
	C163.094833,254.176758 163.661057,253.658951 164.227264,253.141144 
z"/>
<path fill="#6CEBD1" opacity="1.000000" stroke="none" 
	d="
M258.074707,364.427795 
	C259.412506,364.365234 260.832489,364.644989 263.085388,365.088867 
	C263.085388,343.062866 263.085388,321.496796 263.102356,299.462097 
	C263.746094,300.332581 264.910736,301.668457 264.918732,303.011261 
	C265.036255,322.742645 265.033264,342.475098 264.931946,362.206665 
	C264.924377,363.679260 263.919403,366.403412 263.431061,366.391388 
	C261.660767,366.347900 259.913055,365.385681 258.074707,364.427795 
z"/>
<path fill="#6CEBD1" opacity="1.000000" stroke="none" 
	d="
M260.936646,297.499023 
	C250.669205,292.809021 240.324127,287.797913 229.801636,282.481873 
	C234.677094,281.500305 239.747330,280.520660 242.443436,286.797607 
	C242.800186,287.628143 244.962173,287.837097 246.332306,288.052185 
	C252.499023,289.020172 256.541382,293.305176 260.936646,297.499023 
z"/>
<path fill="#5FEBD4" opacity="1.000000" stroke="none" 
	d="
M458.686768,43.834373 
	C459.331787,45.742710 459.664642,47.484554 459.998138,49.612854 
	C458.080078,49.682087 455.448120,50.002472 454.438202,48.872810 
	C453.375092,47.683582 453.862579,45.108162 453.672516,43.138432 
	C455.239899,43.314915 456.807251,43.491398 458.686768,43.834373 
z"/>
<path fill="#6CEBD1" opacity="1.000000" stroke="none" 
	d="
M210.960510,273.523865 
	C204.980347,270.855011 198.944199,267.833435 192.734406,264.503418 
	C198.210861,266.336090 203.885788,268.416260 209.479492,270.695770 
	C210.175217,270.979248 210.440033,272.320190 210.960510,273.523865 
z"/>
<path fill="#6CEBD1" opacity="1.000000" stroke="none" 
	d="
M227.929840,281.623016 
	C225.014465,280.577271 222.024078,279.191986 218.860596,277.508911 
	C219.942642,276.467072 221.197754,275.723022 222.516617,274.941193 
	C224.400772,277.179749 226.127792,279.231628 227.929840,281.623016 
z"/>
<path fill="#6CEBD1" opacity="1.000000" stroke="none" 
	d="
M189.939209,263.607208 
	C185.974075,261.898743 181.941391,259.856018 177.714996,257.518433 
	C182.401611,257.681183 186.661423,259.405670 189.939209,263.607208 
z"/>
<path fill="#5FEBD4" opacity="1.000000" stroke="none" 
	d="
M108.965607,181.175018 
	C109.347420,179.647537 110.009056,178.379196 110.670692,177.110855 
	C111.430161,177.917786 112.189636,178.724716 112.949112,179.531647 
	C111.714546,180.165817 110.479988,180.799973 108.965607,181.175018 
z"/>
<path fill="#5FEBD4" opacity="1.000000" stroke="none" 
	d="
M136.709366,161.887268 
	C137.863403,162.054871 138.746170,162.437881 139.628937,162.820877 
	C138.301468,164.342316 136.974014,165.863754 135.646545,167.385193 
	C135.093689,166.957367 134.540848,166.529526 133.987991,166.101700 
	C134.804688,164.768692 135.621384,163.435699 136.709366,161.887268 
z"/>
<path fill="#78EBD5" opacity="1.000000" stroke="none" 
	d="
M225.047638,348.526917 
	C228.602524,349.892914 232.246933,351.581543 236.039200,353.579712 
	C232.503754,352.209381 228.820465,350.529480 225.047638,348.526917 
z"/>
<path fill="#5FEBD4" opacity="1.000000" stroke="none" 
	d="
M83.215744,190.676407 
	C84.070778,189.296738 85.029655,188.269882 85.988533,187.243011 
	C86.563591,188.104340 87.138657,188.965652 87.713715,189.826981 
	C86.249008,190.227722 84.784294,190.628464 83.215744,190.676407 
z"/>
<path fill="#78EBD5" opacity="1.000000" stroke="none" 
	d="
M200.049316,336.474182 
	C202.965668,337.501648 205.964401,338.859741 209.126785,340.523682 
	C206.237518,339.487915 203.184601,338.146393 200.049316,336.474182 
z"/>
<path fill="#78EBD5" opacity="1.000000" stroke="none" 
	d="
M183.052917,328.462616 
	C185.951584,329.506073 188.934174,330.877167 192.082703,332.548645 
	C189.211365,331.496094 186.174103,330.143158 183.052917,328.462616 
z"/>
<path fill="#78EBD5" opacity="1.000000" stroke="none" 
	d="
M129.054047,302.459839 
	C131.965057,303.494965 134.959290,304.860168 138.114716,306.531982 
	C135.229706,305.489075 132.183487,304.139496 129.054047,302.459839 
z"/>
<path fill="#78EBD5" opacity="1.000000" stroke="none" 
	d="
M140.930969,264.164185 
	C138.449814,265.750610 135.580887,267.310394 132.345245,268.893738 
	C134.833420,267.324066 137.688309,265.730774 140.930969,264.164185 
z"/>
<path fill="#78EBD5" opacity="1.000000" stroke="none" 
	d="
M101.046562,283.228607 
	C100.988739,284.886658 100.544922,286.496460 100.198875,288.468323 
	C99.251678,288.081787 98.206718,287.333160 97.161758,286.584534 
	C98.328026,285.449799 99.494301,284.315063 101.046562,283.228607 
z"/>
<path fill="#5FEBD4" opacity="1.000000" stroke="none" 
	d="
M225.602875,122.463684 
	C224.458710,122.657394 223.458908,122.548454 222.459106,122.439529 
	C222.775589,121.780418 223.092056,121.121307 223.408539,120.462204 
	C224.188095,121.028481 224.967667,121.594757 225.602875,122.463684 
z"/>
<path fill="#78EBD5" opacity="1.000000" stroke="none" 
	d="
M157.883331,256.139801 
	C156.382355,257.344299 154.503067,258.532288 152.277740,259.674042 
	C153.789474,258.459625 155.647232,257.291473 157.883331,256.139801 
z"/>
<path fill="#78EBD5" opacity="1.000000" stroke="none" 
	d="
M115.043961,295.705627 
	C116.952385,296.345245 118.970047,297.282196 121.145042,298.520081 
	C119.252655,297.881683 117.202934,296.942322 115.043961,295.705627 
z"/>
<path fill="#78EBD5" opacity="1.000000" stroke="none" 
	d="
M173.062943,323.373657 
	C175.011597,324.074371 177.034698,325.111847 179.233643,326.446899 
	C177.318802,325.733063 175.228104,324.721710 173.062943,323.373657 
z"/>
<path fill="#78EBD5" opacity="1.000000" stroke="none" 
	d="
M128.036697,270.220459 
	C126.511604,271.469879 124.602768,272.675323 122.336472,273.896545 
	C123.870316,272.667023 125.761627,271.421753 128.036697,270.220459 
z"/>
<path fill="#78EBD5" opacity="1.000000" stroke="none" 
	d="
M241.018677,355.861816 
	C242.617981,356.447754 244.321808,357.324219 246.185562,358.495300 
	C244.604736,357.910736 242.863968,357.031525 241.018677,355.861816 
z"/>
<path fill="#78EBD5" opacity="1.000000" stroke="none" 
	d="
M102.050217,289.507874 
	C103.612572,289.882843 105.263420,290.581085 107.030167,291.599152 
	C105.476936,291.223022 103.807816,290.527100 102.050217,289.507874 
z"/>
<path fill="#5FEBD4" opacity="1.000000" stroke="none" 
	d="
M198.181458,224.314209 
	C198.807800,224.934082 199.113281,225.632019 199.418747,226.329971 
	C198.983536,226.443283 198.548309,226.556580 198.113098,226.669891 
	C198.028931,225.910675 197.944763,225.151474 198.181458,224.314209 
z"/>
<path fill="#78EBD5" opacity="1.000000" stroke="none" 
	d="
M109.842712,279.117493 
	C108.707169,280.041473 107.197678,280.960297 105.335533,281.905914 
	C106.478172,280.992554 107.973465,280.052460 109.842712,279.117493 
z"/>
<path fill="#78EBD5" opacity="1.000000" stroke="none" 
	d="
M167.057129,320.417969 
	C168.617416,320.817749 170.256607,321.551544 172.036530,322.592712 
	C170.496857,322.183990 168.816452,321.467987 167.057129,320.417969 
z"/>
<path fill="#78EBD5" opacity="1.000000" stroke="none" 
	d="
M161.043732,317.505157 
	C162.300583,317.867767 163.640518,318.553375 165.132889,319.534973 
	C163.899170,319.163361 162.512985,318.495728 161.043732,317.505157 
z"/>
<path fill="#78EBD5" opacity="1.000000" stroke="none" 
	d="
M113.911331,277.122620 
	C113.411354,277.775391 112.540688,278.377563 111.329178,278.970123 
	C111.839104,278.331024 112.689873,277.701477 113.911331,277.122620 
z"/>
<path fill="#78EBD5" opacity="1.000000" stroke="none" 
	d="
M211.045197,341.487061 
	C211.652649,341.530426 212.342438,341.891144 213.187958,342.522095 
	C212.604950,342.463043 211.866241,342.133728 211.045197,341.487061 
z"/>
<path fill="#78EBD5" opacity="1.000000" stroke="none" 
	d="
M237.024521,354.322479 
	C237.541580,354.232941 238.097107,354.415802 238.808868,354.858093 
	C238.331070,354.943298 237.697037,354.769073 237.024521,354.322479 
z"/>
<path fill="#78EBD5" opacity="1.000000" stroke="none" 
	d="
M196.041321,334.628784 
	C196.631653,334.648254 197.322632,334.959961 198.153412,335.548859 
	C197.576157,335.524353 196.859070,335.222717 196.041321,334.628784 
z"/>
<path fill="#78EBD5" opacity="1.000000" stroke="none" 
	d="
M119.973618,274.153107 
	C119.721718,274.708679 119.143326,275.238770 118.255951,275.744690 
	C118.513672,275.189545 119.080399,274.658569 119.973618,274.153107 
z"/>
<path fill="#78EBD5" opacity="1.000000" stroke="none" 
	d="
M157.040726,315.548553 
	C157.642044,315.580719 158.331573,315.921875 159.177673,316.529419 
	C158.599152,316.483063 157.864029,316.170288 157.040726,315.548553 
z"/>
<path fill="#6CEBD1" opacity="1.000000" stroke="none" 
	d="
M254.065125,362.448029 
	C254.683121,362.505096 255.377487,362.886169 256.221619,363.549774 
	C255.628082,363.478851 254.884781,363.125458 254.065125,362.448029 
z"/>
<path fill="#78EBD5" opacity="1.000000" stroke="none" 
	d="
M153.036987,313.698853 
	C153.612778,313.714966 154.292511,314.010803 155.102020,314.585571 
	C154.534836,314.569214 153.837860,314.273895 153.036987,313.698853 
z"/>
<path fill="#78EBD5" opacity="1.000000" stroke="none" 
	d="
M217.040054,344.549866 
	C217.636749,344.587341 218.322525,344.929779 219.150803,345.548370 
	C218.571899,345.501312 217.850510,345.178101 217.040054,344.549866 
z"/>
<path fill="#78EBD5" opacity="1.000000" stroke="none" 
	d="
M221.047211,346.472107 
	C221.658218,346.516327 222.349945,346.880707 223.199951,347.513245 
	C222.614777,347.451721 221.871353,347.122009 221.047211,346.472107 
z"/>
<path fill="#78EBD5" opacity="1.000000" stroke="none" 
	d="
M251.030212,360.696899 
	C251.595734,360.732819 252.260010,361.042236 253.027344,361.640137 
	C252.463257,361.609192 251.796112,361.289795 251.030212,360.696899 
z"/>
<path fill="#78EBD5" opacity="1.000000" stroke="none" 
	d="
M146.054901,310.427979 
	C146.671570,310.474762 147.367645,310.847229 148.220184,311.493866 
	C147.629211,311.429932 146.881760,311.091797 146.054901,310.427979 
z"/>
<path fill="#78EBD5" opacity="1.000000" stroke="none" 
	d="
M140.048309,307.463531 
	C140.665329,307.502167 141.363297,307.864227 142.223190,308.494049 
	C141.633163,308.436859 140.881210,308.111908 140.048309,307.463531 
z"/>
<path fill="#78EBD5" opacity="1.000000" stroke="none" 
	d="
M123.046097,299.487366 
	C123.663506,299.519653 124.364204,299.872192 125.224869,300.493835 
	C124.633026,300.444489 123.881203,300.126038 123.046097,299.487366 
z"/>
<path fill="#78EBD5" opacity="1.000000" stroke="none" 
	d="
M108.053619,292.453247 
	C108.673462,292.491119 109.375259,292.851562 110.228165,293.489197 
	C109.631355,293.436188 108.883461,293.105988 108.053619,292.453247 
z"/>
<path fill="#5FEBD4" opacity="1.000000" stroke="none" 
	d="
M162.955688,144.541412 
	C162.740753,144.186432 162.743423,143.834229 162.771393,143.484024 
	C162.772171,143.474411 163.172272,143.480423 163.172714,143.489395 
	C163.189560,143.840332 163.181549,144.192459 162.955688,144.541412 
z"/>
<path fill="#78EBD5" opacity="1.000000" stroke="none" 
	d="
M147.007935,261.171997 
	C146.747238,261.727966 146.158081,262.252869 145.258514,262.748505 
	C145.525238,262.193146 146.102356,261.667023 147.007935,261.171997 
z"/>
<path fill="#78EBD5" opacity="1.000000" stroke="none" 
	d="
M163.921112,253.085114 
	C163.661057,253.658951 163.094833,254.176758 162.224335,254.639893 
	C162.140457,254.142944 162.360870,253.700653 162.788742,253.109772 
	C163.202484,252.983826 163.408737,253.006454 163.921112,253.085114 
z"/>
</svg>